<?xml version="1.0" encoding="UTF-8" standalone="no"?>
<!-- Generated by IcoMoon.io -->

<svg
   xmlns:dc="http://purl.org/dc/elements/1.1/"
   xmlns:cc="http://creativecommons.org/ns#"
   xmlns:rdf="http://www.w3.org/1999/02/22-rdf-syntax-ns#"
   xmlns:svg="http://www.w3.org/2000/svg"
   xmlns="http://www.w3.org/2000/svg"
   xmlns:sodipodi="http://sodipodi.sourceforge.net/DTD/sodipodi-0.dtd"
   xmlns:inkscape="http://www.inkscape.org/namespaces/inkscape"
   version="1.1"
   width="30"
   height="32"
   viewBox="0 0 30 32"
   id="svg2"
   inkscape:version="0.91 r13725"
   sodipodi:docname="ripple-logo.svg">
  <metadata
     id="metadata10">
    <rdf:RDF>
      <cc:Work
         rdf:about="">
        <dc:format>image/svg+xml</dc:format>
        <dc:type
           rdf:resource="http://purl.org/dc/dcmitype/StillImage" />
      </cc:Work>
    </rdf:RDF>
  </metadata>
  <defs
     id="defs8">
    <clipPath
       id="clipPath38"
       clipPathUnits="userSpaceOnUse">
      <path
         inkscape:connector-curvature="0"
         id="path40"
         d="m 1534.39,2877.14 c -55.74,-2.45 -98.94,-49.64 -96.47,-105.39 2.45,-55.74 49.63,-98.93 105.37,-96.48 l 1277.88,50.47 c 25.8,1.22 47.1,21.94 48.25,48.23 1.24,27.89 -20.36,51.48 -48.25,52.7 l -1277.88,50.47 c -2.87,0.13 -5.97,0.14 -8.9,0 z m 192.7,275.2 c -55.73,-2.46 -98.93,-49.64 -96.47,-105.39 2.46,-55.74 49.64,-98.94 105.38,-96.48 l 1277.89,50.47 c 25.79,1.21 47.09,21.93 48.24,48.23 1.24,27.88 -20.36,51.47 -48.24,52.7 L 1736,3152.34 c -2.88,0.12 -5.97,0.13 -8.91,0 z m -192.7,-1375.97 c -55.74,-2.45 -98.94,-49.65 -96.47,-105.39 2.45,-55.75 49.63,-98.94 105.37,-96.48 l 1277.88,50.46 c 25.8,1.22 47.1,21.94 48.25,48.23 1.24,27.88 -20.36,51.48 -48.25,52.72 l -1277.88,50.46 c -2.87,0.11 -5.97,0.12 -8.9,0 z m 385.4,550.39 c -55.73,-2.46 -98.93,-49.65 -96.47,-105.39 2.45,-55.75 49.64,-98.95 105.38,-96.49 l 560.43,50.48 c 25.8,1.2 47.1,21.93 48.25,48.23 1.22,27.88 -20.37,51.47 -48.25,52.7 l -560.43,50.47 c -2.88,0.11 -5.97,0.11 -8.91,0 z m 201.61,275.19 c -55.74,-2.46 -98.93,-49.64 -96.49,-105.39 2.46,-55.75 49.65,-98.94 105.39,-96.49 l 560.43,50.48 c 25.8,1.21 47.09,21.93 48.25,48.23 1.23,27.88 -20.36,51.47 -48.25,52.7 l -560.43,50.47 c -2.88,0.12 -5.97,0.13 -8.9,0 z M 1736,2051.56 3013.89,2001.09 c 27.88,-1.23 49.48,-24.81 48.24,-52.69 -1.15,-26.3 -22.45,-47.02 -48.24,-48.24 L 1736,1849.7 c -55.74,-2.46 -102.92,40.73 -105.38,96.47 -2.46,55.75 40.74,102.94 96.47,105.39 2.94,0.13 6.03,0.12 8.91,0 z" />
    </clipPath>
    <linearGradient
       id="linearGradient42"
       spreadMethod="pad"
       gradientTransform="matrix(-1842.98,-1.611e-4,-1.611e-4,1842.98,2917.52,2363.41)"
       gradientUnits="userSpaceOnUse"
       y2="0"
       x2="1"
       y1="0"
       x1="0">
      <stop
         id="stop44"
         offset="0"
         style="stop-opacity:1;stop-color:#75c6c4" />
      <stop
         id="stop46"
         offset="0.98077678"
         style="stop-opacity:1;stop-color:#008aab" />
      <stop
         id="stop48"
         offset="1"
         style="stop-opacity:1;stop-color:#008aab" />
    </linearGradient>
  </defs>
  <sodipodi:namedview
     pagecolor="#ffffff"
     bordercolor="#666666"
     borderopacity="1"
     objecttolerance="10"
     gridtolerance="10"
     guidetolerance="10"
     inkscape:pageopacity="0"
     inkscape:pageshadow="2"
     inkscape:window-width="1557"
     inkscape:window-height="876"
     id="namedview6"
     showgrid="false"
     inkscape:zoom="25.356855"
     inkscape:cx="14.516498"
     inkscape:cy="22.773134"
     inkscape:window-x="43"
     inkscape:window-y="24"
     inkscape:window-maximized="1"
     inkscape:current-layer="layer1" />
  <g
     transform="matrix(1.25,0,0,-1.25,394.3517,583.00761)"
     id="g10">
    <g
       transform="matrix(0.1,0,0,0.1,-526.27119,217.37288)"
       id="g34">
      <g
         id="g36"
         clip-path="url(#clipPath38)" />
    </g>
  </g>
  <g
     inkscape:groupmode="layer"
     id="layer1"
     inkscape:label="Layer 1">
    <path
       d="M 1.80022,6.049071 C 0.77078,6.094321 -0.02706,6.96585 0.01856,7.995472 0.06386,9.024909 0.93515,9.822565 1.96459,9.777317 L 25.56518,8.84521 C 26.04167,8.82268 26.43505,8.44001 26.45629,7.954471 26.47919,7.439383 26.08027,7.00371 25.56518,6.981179 L 1.96459,6.049071 c -0.053,-0.0024 -0.11026,-0.0026 -0.16437,0 z M 5.35911,0.966526 c -1.02925,0.04543 -1.8271,0.916779 -1.78166,1.9464 0.0454,1.029437 0.91678,1.827279 1.94621,1.781846 L 29.12444,3.762664 C 29.60074,3.740314 29.99412,3.357649 30.01536,2.871926 30.03826,2.357023 29.63934,1.92135 29.12444,1.898633 L 5.52366,0.966526 c -0.0532,-0.0022 -0.11025,-0.0024 -0.16455,0 z M 1.80022,26.378698 c -1.02944,0.04525 -1.82728,0.916964 -1.78166,1.946401 0.0453,1.029621 0.91659,1.827278 1.94603,1.781846 l 23.60059,-0.931924 c 0.47649,-0.02253 0.86987,-0.4052 0.89111,-0.890738 0.0229,-0.514903 -0.37602,-0.950761 -0.89111,-0.973662 L 1.96459,26.378698 c -0.053,-0.002 -0.11026,-0.0022 -0.16437,0 z M 8.918,16.213792 c -1.02925,0.04543 -1.8271,0.916963 -1.78166,1.946401 0.0452,1.029621 0.91678,1.827463 1.94621,1.78203 l 10.35033,-0.932292 c 0.47649,-0.02216 0.86987,-0.405016 0.89111,-0.890739 0.0225,-0.514903 -0.3762,-0.950576 -0.89111,-0.973292 L 9.08255,16.213792 c -0.0532,-0.002 -0.11025,-0.002 -0.16455,0 z m 3.72344,-5.08236 c -1.02943,0.04543 -1.82709,0.916778 -1.78203,1.9464 0.0454,1.029622 0.91697,1.827279 1.9464,1.782031 L 23.15614,13.92757 c 0.47649,-0.02235 0.86969,-0.405015 0.89111,-0.890738 0.0227,-0.514903 -0.37602,-0.950576 -0.89111,-0.973293 L 12.80581,11.131432 c -0.0532,-0.0022 -0.11025,-0.0024 -0.16437,0 z m -7.11778,10.164905 23.60078,0.932108 c 0.5149,0.02272 0.91382,0.458205 0.89092,0.973108 -0.0212,0.485723 -0.41462,0.868391 -0.89092,0.890923 L 5.52366,25.024399 c -1.02943,0.04543 -1.90078,-0.752224 -1.94621,-1.781661 -0.0454,-1.029622 0.75241,-1.901153 1.78166,-1.946401 0.0543,-0.0024 0.11136,-0.0022 0.16455,0"
       style="fill:#000000;fill-opacity:1;fill-rule:nonzero;stroke:none"
       id="path50"
       inkscape:connector-curvature="0"
       clip-path="none"
       mask="none" />
  </g>
</svg>
